<?xml version="1.0" encoding="UTF-8"?>
<svg xmlns="http://www.w3.org/2000/svg" xmlns:xlink="http://www.w3.org/1999/xlink" width="48px" height="48px" viewBox="0 0 48 48" version="1.1">
<g id="surface1">
<path style=" stroke:none;fill-rule:nonzero;fill:rgb(74.509805%,74.509805%,74.509805%);fill-opacity:1;" d="M 1.660156 20.648438 L 7.109375 20.648438 C 8.023438 20.648438 8.769531 21.394531 8.769531 22.308594 L 8.769531 24.890625 C 8.769531 25.808594 8.023438 26.550781 7.109375 26.550781 L 1.660156 26.550781 C 0.742188 26.550781 0 25.808594 0 24.890625 L 0 22.308594 C 0 21.394531 0.742188 20.648438 1.660156 20.648438 Z M 1.660156 20.648438 "/>
<path style=" stroke:none;fill-rule:nonzero;fill:rgb(74.509805%,74.509805%,74.509805%);fill-opacity:1;" d="M 39.960938 20.648438 L 45.539062 20.648438 C 46.457031 20.648438 47.199219 21.394531 47.199219 22.308594 L 47.199219 24.890625 C 47.199219 25.808594 46.457031 26.550781 45.539062 26.550781 L 39.960938 26.550781 C 39.042969 26.550781 38.300781 25.808594 38.300781 24.890625 L 38.300781 22.308594 C 38.300781 21.394531 39.042969 20.648438 39.960938 20.648438 Z M 39.960938 20.648438 "/>
<path style=" stroke:none;fill-rule:nonzero;fill:rgb(74.509805%,74.509805%,74.509805%);fill-opacity:1;" d="M 6 37.027344 L 9.851562 33.175781 C 10.5 32.527344 11.550781 32.527344 12.199219 33.175781 L 14.023438 35 C 14.671875 35.648438 14.671875 36.699219 14.023438 37.347656 L 10.171875 41.199219 C 9.523438 41.847656 8.472656 41.847656 7.824219 41.199219 L 6 39.375 C 5.351562 38.726562 5.351562 37.675781 6 37.027344 Z M 6 37.027344 "/>
<path style=" stroke:none;fill-rule:nonzero;fill:rgb(74.509805%,74.509805%,74.509805%);fill-opacity:1;" d="M 33.082031 9.945312 L 37.027344 6 C 37.675781 5.351562 38.726562 5.351562 39.375 6 L 41.199219 7.824219 C 41.847656 8.472656 41.847656 9.523438 41.199219 10.171875 L 37.253906 14.117188 C 36.605469 14.765625 35.554688 14.765625 34.90625 14.117188 L 33.082031 12.292969 C 32.433594 11.644531 32.433594 10.59375 33.082031 9.945312 Z M 33.082031 9.945312 "/>
<path style=" stroke:none;fill-rule:nonzero;fill:rgb(74.509805%,74.509805%,74.509805%);fill-opacity:1;" d="M 20.648438 45.539062 L 20.648438 40.089844 C 20.648438 39.175781 21.394531 38.433594 22.308594 38.433594 L 24.890625 38.433594 C 25.808594 38.433594 26.550781 39.175781 26.550781 40.089844 L 26.550781 45.539062 C 26.550781 46.457031 25.808594 47.199219 24.890625 47.199219 L 22.308594 47.199219 C 21.394531 47.199219 20.648438 46.457031 20.648438 45.539062 Z M 20.648438 45.539062 "/>
<path style=" stroke:none;fill-rule:nonzero;fill:rgb(74.509805%,74.509805%,74.509805%);fill-opacity:1;" d="M 20.648438 7.238281 L 20.648438 1.660156 C 20.648438 0.742188 21.394531 0 22.308594 0 L 24.890625 0 C 25.808594 0 26.550781 0.742188 26.550781 1.660156 L 26.550781 7.238281 C 26.550781 8.15625 25.808594 8.898438 24.890625 8.898438 L 22.308594 8.898438 C 21.394531 8.898438 20.648438 8.15625 20.648438 7.238281 Z M 20.648438 7.238281 "/>
<path style=" stroke:none;fill-rule:nonzero;fill:rgb(74.509805%,74.509805%,74.509805%);fill-opacity:1;" d="M 37.027344 41.199219 L 33.175781 37.347656 C 32.527344 36.699219 32.527344 35.648438 33.175781 35 L 35 33.175781 C 35.648438 32.527344 36.699219 32.527344 37.347656 33.175781 L 41.199219 37.027344 C 41.847656 37.675781 41.847656 38.726562 41.199219 39.375 L 39.375 41.199219 C 38.726562 41.847656 37.675781 41.847656 37.027344 41.199219 Z M 37.027344 41.199219 "/>
<path style=" stroke:none;fill-rule:nonzero;fill:rgb(74.509805%,74.509805%,74.509805%);fill-opacity:1;" d="M 9.945312 14.117188 L 6 10.171875 C 5.351562 9.523438 5.351562 8.472656 6 7.824219 L 7.824219 6 C 8.472656 5.351562 9.523438 5.351562 10.171875 6 L 14.117188 9.945312 C 14.765625 10.59375 14.765625 11.644531 14.117188 12.292969 L 12.292969 14.117188 C 11.644531 14.765625 10.59375 14.765625 9.945312 14.117188 Z M 9.945312 14.117188 "/>
<path style=" stroke:none;fill-rule:nonzero;fill:rgb(74.509805%,74.509805%,74.509805%);fill-opacity:1;" d="M 23.703125 11.78125 C 17.296875 11.78125 12.058594 17.019531 12.058594 23.425781 C 12.058594 29.832031 17.296875 35.15625 23.703125 35.15625 C 30.109375 35.15625 35.429688 29.832031 35.429688 23.425781 C 35.429688 17.019531 30.109375 11.78125 23.703125 11.78125 Z M 23.703125 17.730469 C 26.921875 17.730469 29.480469 20.207031 29.480469 23.425781 C 29.480469 26.644531 26.921875 29.207031 23.703125 29.207031 C 20.484375 29.207031 18.007812 26.644531 18.007812 23.425781 C 18.007812 20.207031 20.484375 17.730469 23.703125 17.730469 Z M 23.703125 17.730469 "/>
</g>
</svg>
